<?xml version="1.0" ?><svg id="Layer_1" style="enable-background:new 0 0 1000 1000;" version="1.1" viewBox="0 0 1000 1000" xml:space="preserve" xmlns="http://www.w3.org/2000/svg" xmlns:xlink="http://www.w3.org/1999/xlink"><style type="text/css">
	.st0{fill:#FFFFFF;}
</style><title/><g><path d="M500,1000L500,1000C223.9,1000,0,776.1,0,500l0,0C0,223.9,223.9,0,500,0l0,0c276.1,0,500,223.9,500,500l0,0   C1000,776.1,776.1,1000,500,1000z"/><path class="st0" d="M769,497.4c-15.9,3.7-31.3,5.3-45.2,5.3c-77.9,0-137.9-54.4-137.9-149.1c0-46.4,17.9-70.5,43.3-70.5   c24.1,0,40.2,21.7,40.2,65.6c0,25-6.7,52.3-11.6,68.5c0,0,24,41.9,89.7,29c13.9-31,21.5-71.1,21.5-106.2   c0-94.6-48.3-149.7-136.7-149.7c-90.9,0-144.1,69.9-144.1,162.1c0,91.3,42.7,169.7,113.1,205.4C571.6,617,534,669.1,494.7,708.4   C423.4,622.3,359,507.3,332.6,283.1H227.4C276,656.6,420.8,775.5,459,798.4c21.7,13,40.3,12.4,60.1,1.2   c31.1-17.7,124.4-111,176.1-220.2c21.7-0.1,47.8-2.6,73.8-8.4L769,497.4L769,497.4z"/></g></svg>